<?xml version="1.0" standalone="no"?>
<!DOCTYPE svg PUBLIC "-//W3C//DTD SVG 20010904//EN"
 "http://www.w3.org/TR/2001/REC-SVG-20010904/DTD/svg10.dtd">
<svg version="1.0" xmlns="http://www.w3.org/2000/svg"
 width="700.000000pt" height="700.000000pt" viewBox="0 0 700.000000 700.000000"
 preserveAspectRatio="xMidYMid meet">
<metadata>
Created by potrace 1.11, written by Peter Selinger 2001-2013
</metadata>
<g transform="translate(0.000000,700.000000) scale(0.100000,-0.100000)"
fill="#000000" stroke="none">
<path d="M1068 6981 c-162 -44 -282 -138 -360 -280 -48 -88 -67 -164 -72 -288
l-2 -47 -62 -2 c-95 -4 -169 -22 -252 -61 -98 -47 -211 -158 -258 -254 -66
-137 -62 79 -62 -2864 0 -2970 -5 -2738 69 -2880 44 -87 144 -188 226 -232 33
-17 94 -41 135 -52 74 -21 76 -21 2745 -21 2932 0 2735 -4 2871 62 99 48 209
159 256 258 46 97 59 152 62 265 l1 50 60 2 c136 4 258 47 357 125 94 74 149
154 195 283 17 48 18 178 20 2745 1 1804 -1 2713 -8 2750 -17 92 -82 213 -152
284 -68 69 -126 106 -226 145 l-66 26 -2705 2 c-2590 2 -2708 1 -2772 -16z"/>
</g>
</svg>
